G04 #@! TF.GenerationSoftware,KiCad,Pcbnew,10.0.5*
G04 #@! TF.CreationDate,2026-08-15T22:03:08+02:00*
G04 #@! TF.ProjectId,winch_mainboard,77696e63-685f-46d6-9169-6e626f617264,rev?*
G04 #@! TF.SameCoordinates,Original*
G04 #@! TF.FileFunction,Copper,L1,Top*
G04 #@! TF.FilePolarity,Positive*
%FSLAX46Y46*%
G04 Gerber Fmt 4.6, Leading zero omitted, Abs format (unit mm)*
G04 Created by KiCad (PCBNEW 10.0.5) date 2026-08-15 22:03:08*
%MOMM*%
%LPD*%
G01*
G04 APERTURE LIST*
G04 Aperture macros list*
%AMRoundRect*
0 Rectangle with rounded corners*
0 $1 Rounding radius*
0 $2 $3 $4 $5 $6 $7 $8 $9 X,Y pos of 4 corners*
0 Add a 4 corners polygon primitive as box body*
4,1,4,$2,$3,$4,$5,$6,$7,$8,$9,$2,$3,0*
0 Add four circle primitives for the rounded corners*
1,1,$1+$1,$2,$3*
1,1,$1+$1,$4,$5*
1,1,$1+$1,$6,$7*
1,1,$1+$1,$8,$9*
0 Add four rect primitives between the rounded corners*
20,1,$1+$1,$2,$3,$4,$5,0*
20,1,$1+$1,$4,$5,$6,$7,0*
20,1,$1+$1,$6,$7,$8,$9,0*
20,1,$1+$1,$8,$9,$2,$3,0*%
G04 Aperture macros list end*
G04 #@! TA.AperFunction,ComponentPad*
%ADD10R,1.050000X1.500000*%
G04 #@! TD*
G04 #@! TA.AperFunction,ComponentPad*
%ADD11O,1.050000X1.500000*%
G04 #@! TD*
G04 #@! TA.AperFunction,ComponentPad*
%ADD12RoundRect,0.250000X0.725000X-0.600000X0.725000X0.600000X-0.725000X0.600000X-0.725000X-0.600000X0*%
G04 #@! TD*
G04 #@! TA.AperFunction,ComponentPad*
%ADD13O,1.950000X1.700000*%
G04 #@! TD*
G04 #@! TA.AperFunction,ComponentPad*
%ADD14C,1.600000*%
G04 #@! TD*
G04 #@! TA.AperFunction,ComponentPad*
%ADD15R,2.000000X1.200000*%
G04 #@! TD*
G04 #@! TA.AperFunction,ComponentPad*
%ADD16O,2.000000X1.200000*%
G04 #@! TD*
G04 #@! TA.AperFunction,ComponentPad*
%ADD17RoundRect,0.250000X-0.550000X-0.550000X0.550000X-0.550000X0.550000X0.550000X-0.550000X0.550000X0*%
G04 #@! TD*
G04 #@! TA.AperFunction,ComponentPad*
%ADD18RoundRect,0.249999X-0.850001X-0.850001X0.850001X-0.850001X0.850001X0.850001X-0.850001X0.850001X0*%
G04 #@! TD*
G04 #@! TA.AperFunction,ComponentPad*
%ADD19C,2.200000*%
G04 #@! TD*
G04 #@! TA.AperFunction,ComponentPad*
%ADD20RoundRect,0.250000X-0.600000X-0.725000X0.600000X-0.725000X0.600000X0.725000X-0.600000X0.725000X0*%
G04 #@! TD*
G04 #@! TA.AperFunction,ComponentPad*
%ADD21O,1.700000X1.950000*%
G04 #@! TD*
G04 #@! TA.AperFunction,ComponentPad*
%ADD22R,1.700000X1.700000*%
G04 #@! TD*
G04 #@! TA.AperFunction,ComponentPad*
%ADD23C,1.700000*%
G04 #@! TD*
G04 #@! TA.AperFunction,SMDPad,CuDef*
%ADD24RoundRect,0.150000X-0.825000X-0.150000X0.825000X-0.150000X0.825000X0.150000X-0.825000X0.150000X0*%
G04 #@! TD*
G04 #@! TA.AperFunction,ComponentPad*
%ADD25RoundRect,0.250000X-1.050000X1.050000X-1.050000X-1.050000X1.050000X-1.050000X1.050000X1.050000X0*%
G04 #@! TD*
G04 #@! TA.AperFunction,ComponentPad*
%ADD26C,2.600000*%
G04 #@! TD*
G04 #@! TA.AperFunction,ComponentPad*
%ADD27C,1.524000*%
G04 #@! TD*
G04 #@! TA.AperFunction,ComponentPad*
%ADD28R,1.524000X1.524000*%
G04 #@! TD*
G04 #@! TA.AperFunction,ComponentPad*
%ADD29C,3.000000*%
G04 #@! TD*
G04 #@! TA.AperFunction,ComponentPad*
%ADD30C,2.500000*%
G04 #@! TD*
G04 #@! TA.AperFunction,ComponentPad*
%ADD31RoundRect,0.250000X1.050000X-1.050000X1.050000X1.050000X-1.050000X1.050000X-1.050000X-1.050000X0*%
G04 #@! TD*
G04 #@! TA.AperFunction,ComponentPad*
%ADD32R,1.800000X1.800000*%
G04 #@! TD*
G04 #@! TA.AperFunction,ComponentPad*
%ADD33C,1.800000*%
G04 #@! TD*
G04 #@! TA.AperFunction,ComponentPad*
%ADD34RoundRect,0.250000X-0.600000X-0.750000X0.600000X-0.750000X0.600000X0.750000X-0.600000X0.750000X0*%
G04 #@! TD*
G04 #@! TA.AperFunction,ComponentPad*
%ADD35O,1.700000X2.000000*%
G04 #@! TD*
G04 #@! TA.AperFunction,ViaPad*
%ADD36C,0.800000*%
G04 #@! TD*
G04 #@! TA.AperFunction,ViaPad*
%ADD37C,0.600000*%
G04 #@! TD*
G04 #@! TA.AperFunction,Conductor*
%ADD38C,0.600000*%
G04 #@! TD*
G04 #@! TA.AperFunction,Conductor*
%ADD39C,0.200000*%
G04 #@! TD*
G04 #@! TA.AperFunction,Conductor*
%ADD40C,1.500000*%
G04 #@! TD*
G04 APERTURE END LIST*
D10*
X52430000Y-52360000D03*
D11*
X53700000Y-52360000D03*
X54970000Y-52360000D03*
D12*
X22312500Y-70500000D03*
D13*
X22312500Y-68000000D03*
X22312500Y-65500000D03*
X22312500Y-63000000D03*
D14*
X104000000Y-45000000D03*
X104000000Y-55160000D03*
X64500000Y-52000000D03*
X74660000Y-52000000D03*
D15*
X115500000Y-23198120D03*
D16*
X115500000Y-25738120D03*
X115500000Y-28278120D03*
X115500000Y-30818120D03*
X115500000Y-33358120D03*
X115500000Y-35898120D03*
X115500000Y-38438120D03*
X115500000Y-40978120D03*
X115500000Y-43518120D03*
X115500000Y-46058120D03*
X115500000Y-48598120D03*
X115500000Y-51138120D03*
X115500000Y-53678120D03*
X115500000Y-56218120D03*
X115500000Y-58758120D03*
X115500000Y-61298120D03*
X115500000Y-63838120D03*
X115500000Y-66378120D03*
X115500000Y-68918120D03*
X115496320Y-71455400D03*
X115496320Y-73995400D03*
X115496320Y-76535400D03*
X138360000Y-76538120D03*
X138360000Y-73998120D03*
X138360000Y-71458120D03*
X138360000Y-68918120D03*
X138360000Y-66378120D03*
X138360000Y-63838120D03*
X138360000Y-61298120D03*
X138360000Y-58758120D03*
X138360000Y-56218120D03*
X138360000Y-53678120D03*
X138360000Y-51138120D03*
X138360000Y-48598120D03*
X138360000Y-46058120D03*
X138360000Y-43518120D03*
X138360000Y-40978120D03*
X138360000Y-38438120D03*
X138360000Y-35898120D03*
X138360000Y-33358120D03*
X138360000Y-30818120D03*
X138360000Y-28278120D03*
X138360000Y-25738120D03*
X138360000Y-23198120D03*
D17*
X84540000Y-62750000D03*
D14*
X92160000Y-62750000D03*
D18*
X32800000Y-52000000D03*
D19*
X42960000Y-52000000D03*
D20*
X80500000Y-92000000D03*
D21*
X83000000Y-92000000D03*
X85500000Y-92000000D03*
X88000000Y-92000000D03*
X90500000Y-92000000D03*
X93000000Y-92000000D03*
D14*
X49500000Y-42000000D03*
X59660000Y-42000000D03*
X32500000Y-62750000D03*
X42660000Y-62750000D03*
D17*
X50693333Y-62750000D03*
D14*
X58313333Y-62750000D03*
X146250000Y-42500000D03*
X148750000Y-42500000D03*
D22*
X148500000Y-95180000D03*
D23*
X148500000Y-92640000D03*
X148500000Y-90100000D03*
X148500000Y-87560000D03*
X148500000Y-85020000D03*
X148500000Y-82480000D03*
X148500000Y-79940000D03*
X148500000Y-77400000D03*
X148500000Y-74860000D03*
X148500000Y-72320000D03*
X148500000Y-69780000D03*
X148500000Y-67240000D03*
X148500000Y-64700000D03*
X148500000Y-62160000D03*
X148500000Y-59620000D03*
X148500000Y-57080000D03*
X148500000Y-54540000D03*
X148500000Y-52000000D03*
D24*
X145050000Y-28190000D03*
X145050000Y-29460000D03*
X145050000Y-30730000D03*
X145050000Y-32000000D03*
X150000000Y-32000000D03*
X150000000Y-30730000D03*
X150000000Y-29460000D03*
X150000000Y-28190000D03*
D25*
X158500000Y-30000000D03*
D26*
X158500000Y-35080000D03*
D20*
X100000000Y-19000000D03*
D21*
X102500000Y-19000000D03*
X105000000Y-19000000D03*
X107500000Y-19000000D03*
D14*
X82000000Y-52000000D03*
X92160000Y-52000000D03*
D27*
X72000000Y-28646000D03*
D28*
X72000000Y-31186000D03*
D27*
X72000000Y-17978000D03*
D28*
X72000000Y-20518000D03*
D27*
X90542000Y-17978000D03*
D28*
X90542000Y-20518000D03*
D27*
X90542000Y-28646000D03*
D28*
X90542000Y-31186000D03*
D12*
X22312500Y-47500000D03*
D13*
X22312500Y-45000000D03*
X22312500Y-42500000D03*
X22312500Y-40000000D03*
D14*
X49000000Y-73000000D03*
X59160000Y-73000000D03*
X66346667Y-62750000D03*
X76506667Y-62750000D03*
X65500000Y-73000000D03*
X75660000Y-73000000D03*
D29*
X52450000Y-87950000D03*
D30*
X50500000Y-81900000D03*
D29*
X38300000Y-81900000D03*
X38250000Y-93950000D03*
D30*
X50500000Y-93900000D03*
D22*
X162040000Y-95180000D03*
D23*
X162040000Y-92640000D03*
X162040000Y-90100000D03*
X162040000Y-87560000D03*
X162040000Y-85020000D03*
X162040000Y-82480000D03*
X162040000Y-79940000D03*
X162040000Y-77400000D03*
X162040000Y-74860000D03*
X162040000Y-72320000D03*
X162040000Y-69780000D03*
X162040000Y-67240000D03*
X162040000Y-64700000D03*
X162040000Y-62160000D03*
X162040000Y-59620000D03*
X162040000Y-57080000D03*
X162040000Y-54540000D03*
X162040000Y-52000000D03*
D31*
X25172500Y-92860000D03*
D26*
X25172500Y-87780000D03*
X25172500Y-82700000D03*
D32*
X103500000Y-70500000D03*
D33*
X103500000Y-67960000D03*
D34*
X63500000Y-92000000D03*
D35*
X66000000Y-92000000D03*
D27*
X45000000Y-28646000D03*
D28*
X45000000Y-31186000D03*
D27*
X45000000Y-17978000D03*
D28*
X45000000Y-20518000D03*
D27*
X63542000Y-17978000D03*
D28*
X63542000Y-20518000D03*
D27*
X63542000Y-28646000D03*
D28*
X63542000Y-31186000D03*
D14*
X152840000Y-42500000D03*
X163000000Y-42500000D03*
D31*
X25172500Y-24280000D03*
D26*
X25172500Y-19200000D03*
D14*
X82000000Y-73000000D03*
X92160000Y-73000000D03*
D17*
X35000000Y-23500000D03*
D14*
X37000000Y-23500000D03*
X32500000Y-42000000D03*
X42660000Y-42000000D03*
D20*
X156000000Y-19000000D03*
D21*
X158500000Y-19000000D03*
X161000000Y-19000000D03*
D36*
X57700000Y-75500000D03*
X52500000Y-75500000D03*
D37*
X56000000Y-56500000D03*
X63000000Y-56500000D03*
X43858578Y-40141422D03*
D36*
X19000000Y-51500000D03*
X14292523Y-51603738D03*
D37*
X72500000Y-50500000D03*
X98000000Y-56000000D03*
X69000000Y-41000000D03*
X61000000Y-41000000D03*
X72500000Y-47500000D03*
X92000000Y-56000000D03*
X113000000Y-34500000D03*
X61500000Y-58500000D03*
X61500000Y-63000000D03*
X82000000Y-59250000D03*
X82000000Y-62750000D03*
X33500000Y-57500000D03*
X107500000Y-32000000D03*
X30500000Y-57500000D03*
X113000000Y-32000000D03*
X141000000Y-23500000D03*
X146000000Y-23500000D03*
X150000000Y-28190000D03*
D36*
X126500000Y-80000000D03*
X119000000Y-80000000D03*
D37*
X54000000Y-70500000D03*
X57000000Y-70500000D03*
X88000000Y-78500000D03*
X85000000Y-78500000D03*
X33500000Y-59000000D03*
X30500000Y-59000000D03*
X56000000Y-57500000D03*
X107500000Y-34500000D03*
X61500000Y-57500000D03*
X64000000Y-40000000D03*
X107500000Y-37000000D03*
X124500000Y-37000000D03*
D38*
X51500000Y-75500000D02*
X49000000Y-73000000D01*
X65500000Y-73000000D02*
X65500000Y-70500000D01*
X59000000Y-70500000D02*
X57600000Y-71900000D01*
X65500000Y-70500000D02*
X59000000Y-70500000D01*
X57600000Y-75400000D02*
X57700000Y-75500000D01*
X57600000Y-71900000D02*
X57600000Y-75400000D01*
X52500000Y-75500000D02*
X51500000Y-75500000D01*
D39*
X37160000Y-92860000D02*
X38250000Y-93950000D01*
X52430000Y-52430000D02*
X52500000Y-52500000D01*
X55800003Y-56699997D02*
X56000000Y-56500000D01*
X55699997Y-56699997D02*
X55800003Y-56699997D01*
X63500000Y-56500000D02*
X64000000Y-57000000D01*
X55500000Y-56500000D02*
X55699997Y-56699997D01*
X52500000Y-55500000D02*
X53500000Y-56500000D01*
X52500000Y-52500000D02*
X52500000Y-55500000D01*
X53500000Y-56500000D02*
X55500000Y-56500000D01*
X52430000Y-52360000D02*
X52430000Y-52430000D01*
X63000000Y-56500000D02*
X63500000Y-56500000D01*
X64000000Y-57000000D02*
X93000000Y-57000000D01*
X93000000Y-57000000D02*
X93500000Y-56500000D01*
X93500000Y-56500000D02*
X93500000Y-53340000D01*
X93500000Y-53340000D02*
X92160000Y-52000000D01*
X107500000Y-34500000D02*
X93565686Y-34500000D01*
X93565686Y-34500000D02*
X79065686Y-49000000D01*
X79065686Y-49000000D02*
X70500000Y-49000000D01*
X70500000Y-49000000D02*
X70500000Y-54000000D01*
X70500000Y-54000000D02*
X70000000Y-54500000D01*
X70000000Y-54500000D02*
X62000000Y-54500000D01*
X62000000Y-54500000D02*
X61500000Y-55000000D01*
X61500000Y-55000000D02*
X61500000Y-57500000D01*
D38*
X90542000Y-28646000D02*
X90542000Y-31186000D01*
X63542000Y-28646000D02*
X63542000Y-31186000D01*
D40*
X45000000Y-31186000D02*
X45000000Y-33000000D01*
X45000000Y-33000000D02*
X46000000Y-34000000D01*
X72000000Y-31500000D02*
X72000000Y-31186000D01*
X46000000Y-34000000D02*
X69500000Y-34000000D01*
X69500000Y-34000000D02*
X72000000Y-31500000D01*
D39*
X43858578Y-40141422D02*
X43858578Y-39858578D01*
X43858578Y-39858578D02*
X42660000Y-38660000D01*
X115500000Y-38438120D02*
X112372435Y-38438120D01*
X112372435Y-38438120D02*
X109000000Y-35065685D01*
D38*
X19500000Y-100000000D02*
X14000000Y-94500000D01*
X143500000Y-100000000D02*
X19500000Y-100000000D01*
X142500000Y-100000000D02*
X143500000Y-100000000D01*
X14000000Y-94500000D02*
X14000000Y-51896261D01*
X14000000Y-51896261D02*
X14292523Y-51603738D01*
X19000000Y-51500000D02*
X20000000Y-51500000D01*
D39*
X72500000Y-47500000D02*
X72500000Y-43000000D01*
X127000000Y-41500000D02*
X127000000Y-49500000D01*
X124000000Y-52500000D02*
X101500000Y-52500000D01*
X70500000Y-41000000D02*
X69000000Y-41000000D01*
X72500000Y-43000000D02*
X70500000Y-41000000D01*
X138360000Y-35898120D02*
X132601880Y-35898120D01*
X92000000Y-56000000D02*
X75500000Y-56000000D01*
X72500000Y-53000000D02*
X72500000Y-50500000D01*
X132601880Y-35898120D02*
X127000000Y-41500000D01*
X101500000Y-52500000D02*
X98000000Y-56000000D01*
X127000000Y-49500000D02*
X124000000Y-52500000D01*
X75500000Y-56000000D02*
X72500000Y-53000000D01*
X61000000Y-41000000D02*
X60660000Y-41000000D01*
X60660000Y-41000000D02*
X59660000Y-42000000D01*
X113000000Y-34500000D02*
X125500000Y-34500000D01*
X125500000Y-34500000D02*
X126641880Y-33358120D01*
X126641880Y-33358120D02*
X138360000Y-33358120D01*
X105000000Y-19000000D02*
X105000000Y-27500000D01*
X105000000Y-27500000D02*
X109000000Y-31500000D01*
X109000000Y-31500000D02*
X109000000Y-35065685D01*
X107500000Y-19000000D02*
X107500000Y-29434314D01*
X107500000Y-29434314D02*
X109400000Y-31334315D01*
X109400000Y-31334315D02*
X109400000Y-34900000D01*
X109400000Y-34900000D02*
X110398120Y-35898120D01*
X110398120Y-35898120D02*
X115500000Y-35898120D01*
X61500000Y-66000000D02*
X61500000Y-63000000D01*
X100500000Y-44934314D02*
X104456194Y-40978120D01*
X92500000Y-58500000D02*
X100500000Y-50500000D01*
X104456194Y-40978120D02*
X115500000Y-40978120D01*
X61500000Y-58500000D02*
X92500000Y-58500000D01*
X100500000Y-50500000D02*
X100500000Y-44934314D01*
X101000000Y-45000000D02*
X101000000Y-51000000D01*
X101000000Y-51000000D02*
X93000000Y-59000000D01*
X102518120Y-43518120D02*
X102500000Y-43500000D01*
X76506667Y-62750000D02*
X82000000Y-62750000D01*
X102500000Y-43500000D02*
X101000000Y-45000000D01*
X115500000Y-43518120D02*
X102518120Y-43518120D01*
X82250000Y-59000000D02*
X82000000Y-59250000D01*
X93000000Y-59000000D02*
X82250000Y-59000000D01*
D40*
X58313333Y-60000000D02*
X58313333Y-55498333D01*
X58313333Y-60000000D02*
X58813333Y-60500000D01*
X58813333Y-60500000D02*
X89910000Y-60500000D01*
X89910000Y-60500000D02*
X92160000Y-62750000D01*
X58313333Y-62750000D02*
X58313333Y-60000000D01*
D39*
X30500000Y-57500000D02*
X25000000Y-63000000D01*
X25000000Y-63000000D02*
X22312500Y-63000000D01*
X107500000Y-32000000D02*
X95500000Y-32000000D01*
X87500000Y-40000000D02*
X68000000Y-40000000D01*
X43934314Y-47000000D02*
X33500000Y-57434315D01*
X95500000Y-32000000D02*
X87500000Y-40000000D01*
X68000000Y-40000000D02*
X61000000Y-47000000D01*
X61000000Y-47000000D02*
X43934314Y-47000000D01*
X33500000Y-57434315D02*
X33500000Y-57500000D01*
X125500000Y-32000000D02*
X113000000Y-32000000D01*
X138360000Y-30818120D02*
X126681880Y-30818120D01*
X126681880Y-30818120D02*
X125500000Y-32000000D01*
X150000000Y-26000000D02*
X147500000Y-23500000D01*
X150000000Y-28190000D02*
X150000000Y-26000000D01*
X147500000Y-23500000D02*
X146000000Y-23500000D01*
X141000000Y-23500000D02*
X140698120Y-23198120D01*
X140698120Y-23198120D02*
X138360000Y-23198120D01*
D40*
X15500000Y-51000000D02*
X15500000Y-16000000D01*
X35146000Y-28646000D02*
X45000000Y-28646000D01*
X67646000Y-28646000D02*
X72000000Y-28646000D01*
X18500000Y-13000000D02*
X52000000Y-13000000D01*
X16000000Y-51500000D02*
X15500000Y-51000000D01*
X32800000Y-52000000D02*
X30800000Y-54000000D01*
X50500000Y-81900000D02*
X46100000Y-77500000D01*
X52450000Y-87950000D02*
X55500000Y-91000000D01*
X16500000Y-77500000D02*
X16000000Y-78000000D01*
X53500000Y-97000000D02*
X19000000Y-97000000D01*
X72000000Y-28646000D02*
X72000000Y-31186000D01*
X25172500Y-24280000D02*
X34220000Y-24280000D01*
X15500000Y-16000000D02*
X18500000Y-13000000D01*
X45000000Y-28646000D02*
X45000000Y-31186000D01*
X30800000Y-54000000D02*
X18500000Y-54000000D01*
X55500000Y-95000000D02*
X53500000Y-97000000D01*
X35000000Y-23500000D02*
X35000000Y-28500000D01*
X16000000Y-94000000D02*
X16000000Y-78000000D01*
X18500000Y-54000000D02*
X16000000Y-51500000D01*
X19000000Y-97000000D02*
X16000000Y-94000000D01*
X16000000Y-78000000D02*
X16000000Y-51500000D01*
X55500000Y-91000000D02*
X55500000Y-95000000D01*
X35000000Y-28500000D02*
X35146000Y-28646000D01*
X34220000Y-24280000D02*
X35000000Y-23500000D01*
D38*
X19000000Y-37500000D02*
X20500000Y-36000000D01*
X103000000Y-14500000D02*
X100000000Y-17500000D01*
X146230000Y-30730000D02*
X147000000Y-31500000D01*
X166500000Y-43500000D02*
X166500000Y-16500000D01*
X145050000Y-30730000D02*
X146230000Y-30730000D01*
X49000000Y-73000000D02*
X37500000Y-73000000D01*
X166500000Y-16500000D02*
X164500000Y-14500000D01*
X20500000Y-35500000D02*
X43000000Y-35500000D01*
X83728000Y-38000000D02*
X90542000Y-31186000D01*
X45500000Y-38000000D02*
X49500000Y-42000000D01*
X146000000Y-35500000D02*
X146000000Y-42250000D01*
X32500000Y-42000000D02*
X24000000Y-50500000D01*
X82000000Y-73000000D02*
X82000000Y-70500000D01*
X146250000Y-43250000D02*
X149500000Y-46500000D01*
X32500000Y-62750000D02*
X32500000Y-68000000D01*
X60500000Y-38000000D02*
X45500000Y-38000000D01*
X147000000Y-31500000D02*
X147000000Y-34500000D01*
X65500000Y-69000000D02*
X66500000Y-68000000D01*
X146250000Y-42500000D02*
X146250000Y-43250000D01*
X59500000Y-45500000D02*
X62000000Y-43000000D01*
X24000000Y-50500000D02*
X20500000Y-50500000D01*
X32500000Y-57000000D02*
X44000000Y-45500000D01*
X164500000Y-14500000D02*
X103000000Y-14500000D01*
X79500000Y-68000000D02*
X66500000Y-68000000D01*
X62000000Y-39500000D02*
X60500000Y-38000000D01*
X66500000Y-68000000D02*
X66346667Y-67846667D01*
X90542000Y-28542000D02*
X90500000Y-28500000D01*
X90542000Y-28646000D02*
X90542000Y-28542000D01*
X100000000Y-17500000D02*
X100000000Y-19000000D01*
X43000000Y-35500000D02*
X45500000Y-38000000D01*
X30000000Y-70500000D02*
X22312500Y-70500000D01*
X62000000Y-43000000D02*
X62000000Y-39500000D01*
X44000000Y-45500000D02*
X59500000Y-45500000D01*
X32500000Y-68000000D02*
X30000000Y-70500000D01*
X163500000Y-46500000D02*
X166500000Y-43500000D01*
X90500000Y-28500000D02*
X100000000Y-19000000D01*
X20500000Y-50500000D02*
X19000000Y-49000000D01*
X19000000Y-49000000D02*
X19000000Y-37500000D01*
X147000000Y-34500000D02*
X146000000Y-35500000D01*
X146000000Y-42250000D02*
X146250000Y-42500000D01*
X149500000Y-46500000D02*
X163500000Y-46500000D01*
X32500000Y-62750000D02*
X32500000Y-57000000D01*
X20500000Y-36000000D02*
X20500000Y-35500000D01*
X60500000Y-38000000D02*
X83728000Y-38000000D01*
X82000000Y-70500000D02*
X79500000Y-68000000D01*
X37500000Y-73000000D02*
X32500000Y-68000000D01*
X66346667Y-67846667D02*
X66346667Y-62750000D01*
X126500000Y-80000000D02*
X129000000Y-80000000D01*
X22312500Y-47500000D02*
X24000000Y-47500000D01*
X26000000Y-51500000D02*
X20000000Y-51500000D01*
X17500000Y-49000000D02*
X17500000Y-17000000D01*
X31500000Y-40000000D02*
X34500000Y-40000000D01*
X115496320Y-73995400D02*
X114004600Y-73995400D01*
X114000000Y-80000000D02*
X119000000Y-80000000D01*
X154680000Y-100000000D02*
X162040000Y-92640000D01*
X139500000Y-97000000D02*
X142500000Y-100000000D01*
X24000000Y-47500000D02*
X31500000Y-40000000D01*
X139500000Y-90500000D02*
X139500000Y-97000000D01*
X34500000Y-40000000D02*
X34500000Y-43000000D01*
X114004600Y-73995400D02*
X113000000Y-75000000D01*
X34500000Y-43000000D02*
X26000000Y-51500000D01*
X113000000Y-75000000D02*
X113000000Y-79000000D01*
X143500000Y-100000000D02*
X154680000Y-100000000D01*
X49896000Y-15000000D02*
X63542000Y-28646000D01*
X129000000Y-80000000D02*
X139500000Y-90500000D01*
X113000000Y-79000000D02*
X114000000Y-80000000D01*
X20000000Y-51500000D02*
X17500000Y-49000000D01*
X17500000Y-17000000D02*
X19500000Y-15000000D01*
X19500000Y-15000000D02*
X49896000Y-15000000D01*
D39*
X154000000Y-42500000D02*
X156500000Y-45000000D01*
X157960000Y-29460000D02*
X158500000Y-30000000D01*
X163000000Y-45000000D02*
X165000000Y-43000000D01*
X159000000Y-30000000D02*
X158500000Y-30000000D01*
X165000000Y-36000000D02*
X159000000Y-30000000D01*
X152840000Y-42500000D02*
X154000000Y-42500000D01*
X150000000Y-29460000D02*
X157960000Y-29460000D01*
X165000000Y-43000000D02*
X165000000Y-36000000D01*
X156500000Y-45000000D02*
X163000000Y-45000000D01*
X154150000Y-30730000D02*
X158500000Y-35080000D01*
X161000000Y-35000000D02*
X160920000Y-35080000D01*
X160920000Y-35080000D02*
X158500000Y-35080000D01*
X163000000Y-37000000D02*
X161000000Y-35000000D01*
X150000000Y-30730000D02*
X154150000Y-30730000D01*
X163000000Y-42500000D02*
X163000000Y-37000000D01*
X115500000Y-33358120D02*
X125141880Y-33358120D01*
X125141880Y-33358120D02*
X126500000Y-32000000D01*
X126500000Y-32000000D02*
X145050000Y-32000000D01*
X141000000Y-29500000D02*
X142310000Y-28190000D01*
X125681880Y-30818120D02*
X127000000Y-29500000D01*
X115500000Y-30818120D02*
X125681880Y-30818120D01*
X127000000Y-29500000D02*
X141000000Y-29500000D01*
X142310000Y-28190000D02*
X145050000Y-28190000D01*
D40*
X25172500Y-92860000D02*
X37160000Y-92860000D01*
X25172500Y-87780000D02*
X32220000Y-87780000D01*
D39*
X33000000Y-87000000D02*
X33200000Y-87000000D01*
D40*
X32220000Y-87780000D02*
X33000000Y-87000000D01*
X33200000Y-87000000D02*
X38300000Y-81900000D01*
D39*
X39500000Y-52000000D02*
X39500000Y-53000000D01*
X44000000Y-47500000D02*
X39500000Y-52000000D01*
X41500000Y-55000000D02*
X45000000Y-55000000D01*
X45000000Y-55000000D02*
X47640000Y-52360000D01*
X39500000Y-53000000D02*
X41500000Y-55000000D01*
X57000000Y-47500000D02*
X44000000Y-47500000D01*
X47640000Y-52360000D02*
X52430000Y-52360000D01*
X61500000Y-52000000D02*
X57000000Y-47500000D01*
X64500000Y-52000000D02*
X61500000Y-52000000D01*
X117000000Y-39500000D02*
X118000000Y-40500000D01*
X82000000Y-52000000D02*
X82000000Y-49000000D01*
X105000000Y-39500000D02*
X117000000Y-39500000D01*
X99000000Y-48000000D02*
X100000000Y-47000000D01*
X118000000Y-40500000D02*
X118000000Y-44500000D01*
X82000000Y-49000000D02*
X83000000Y-48000000D01*
X118000000Y-44500000D02*
X116441880Y-46058120D01*
X100000000Y-44500000D02*
X105000000Y-39500000D01*
X116441880Y-46058120D02*
X115500000Y-46058120D01*
X100000000Y-47000000D02*
X100000000Y-44500000D01*
X83000000Y-48000000D02*
X99000000Y-48000000D01*
X57000000Y-85500000D02*
X63500000Y-92000000D01*
X53500000Y-70500000D02*
X54000000Y-70500000D01*
X57000000Y-70500000D02*
X61500000Y-66000000D01*
X50693333Y-67693333D02*
X53500000Y-70500000D01*
X50693333Y-62750000D02*
X42660000Y-62750000D01*
X50693333Y-62750000D02*
X50693333Y-67693333D01*
X57000000Y-70500000D02*
X57000000Y-85500000D01*
X84540000Y-63040000D02*
X84540000Y-62750000D01*
X86500000Y-65000000D02*
X84540000Y-63040000D01*
X86500000Y-81500000D02*
X86500000Y-65000000D01*
X83000000Y-85000000D02*
X86500000Y-81500000D01*
X83000000Y-92000000D02*
X83000000Y-85000000D01*
X82000000Y-62750000D02*
X84540000Y-62750000D01*
X138360000Y-28278120D02*
X139221880Y-28278120D01*
X146500000Y-21000000D02*
X156500000Y-21000000D01*
X139221880Y-28278120D02*
X146500000Y-21000000D01*
X156500000Y-21000000D02*
X158500000Y-19000000D01*
X140261880Y-25738120D02*
X147000000Y-19000000D01*
X147000000Y-19000000D02*
X156000000Y-19000000D01*
X138360000Y-25738120D02*
X140261880Y-25738120D01*
X124000000Y-84500000D02*
X124000000Y-62000000D01*
X92500000Y-99000000D02*
X109500000Y-99000000D01*
X123298120Y-61298120D02*
X115500000Y-61298120D01*
X85500000Y-92000000D02*
X92500000Y-99000000D01*
X124000000Y-62000000D02*
X123298120Y-61298120D01*
X109500000Y-99000000D02*
X124000000Y-84500000D01*
X147500000Y-29500000D02*
X147460000Y-29460000D01*
X148810000Y-28190000D02*
X147500000Y-29500000D01*
X147460000Y-29460000D02*
X145050000Y-29460000D01*
X150000000Y-28190000D02*
X148810000Y-28190000D01*
X27812500Y-37000000D02*
X22312500Y-42500000D01*
X42660000Y-42000000D02*
X42660000Y-38660000D01*
X42660000Y-38660000D02*
X41000000Y-37000000D01*
X41000000Y-37000000D02*
X27812500Y-37000000D01*
X57000000Y-44500000D02*
X58500000Y-43000000D01*
X41165686Y-36600000D02*
X49065686Y-44500000D01*
X22312500Y-40000000D02*
X25712500Y-36600000D01*
X58660000Y-43000000D02*
X59660000Y-42000000D01*
X58500000Y-43000000D02*
X58660000Y-43000000D01*
X49065686Y-44500000D02*
X57000000Y-44500000D01*
X25712500Y-36600000D02*
X41165686Y-36600000D01*
X104000000Y-67460000D02*
X103500000Y-67960000D01*
X104000000Y-55160000D02*
X104000000Y-67460000D01*
X110000000Y-51000000D02*
X110138120Y-51138120D01*
X110138120Y-51138120D02*
X115500000Y-51138120D01*
X104000000Y-45000000D02*
X107000000Y-45000000D01*
X110000000Y-48000000D02*
X110000000Y-51000000D01*
X107000000Y-45000000D02*
X110000000Y-48000000D01*
X139878120Y-66378120D02*
X144500000Y-71000000D01*
X158500000Y-82500000D02*
X158520000Y-82480000D01*
X156500000Y-80500000D02*
X158500000Y-82500000D01*
X158520000Y-82480000D02*
X162040000Y-82480000D01*
X138360000Y-66378120D02*
X139878120Y-66378120D01*
X144500000Y-71000000D02*
X153000000Y-71000000D01*
X153000000Y-71000000D02*
X156500000Y-74500000D01*
X156500000Y-74500000D02*
X156500000Y-80500000D01*
X126000000Y-73500000D02*
X135000000Y-82500000D01*
X115496320Y-71455400D02*
X112955400Y-71455400D01*
X113000000Y-60000000D02*
X124500000Y-60000000D01*
X144000000Y-82500000D02*
X145130000Y-83630000D01*
X112955400Y-71455400D02*
X112000000Y-70500000D01*
X112000000Y-61000000D02*
X113000000Y-60000000D01*
X160650000Y-83630000D02*
X162040000Y-85020000D01*
X145130000Y-83630000D02*
X160650000Y-83630000D01*
X124500000Y-60000000D02*
X126000000Y-61500000D01*
X135000000Y-82500000D02*
X144000000Y-82500000D01*
X112000000Y-70500000D02*
X112000000Y-61000000D01*
X126000000Y-61500000D02*
X126000000Y-73500000D01*
D40*
X58313333Y-66186667D02*
X55500000Y-69000000D01*
X55500000Y-81000000D02*
X51500000Y-85000000D01*
X49000000Y-85000000D02*
X49000000Y-92400000D01*
X49000000Y-92400000D02*
X50500000Y-93900000D01*
X55175000Y-50675000D02*
X55175000Y-52360000D01*
X55000000Y-49000000D02*
X55000000Y-50500000D01*
X58313333Y-55498333D02*
X55175000Y-52360000D01*
X51500000Y-85000000D02*
X49000000Y-85000000D01*
X43500000Y-52000000D02*
X46500000Y-49000000D01*
X55000000Y-50500000D02*
X55175000Y-50675000D01*
X58313333Y-62750000D02*
X58313333Y-66186667D01*
X46500000Y-49000000D02*
X55000000Y-49000000D01*
X55500000Y-69000000D02*
X55500000Y-81000000D01*
X42960000Y-52000000D02*
X43500000Y-52000000D01*
D39*
X95500000Y-97000000D02*
X108500000Y-97000000D01*
X108500000Y-97000000D02*
X121500000Y-84000000D01*
X90500000Y-80000000D02*
X89000000Y-78500000D01*
X79500000Y-73000000D02*
X75660000Y-73000000D01*
X121500000Y-67000000D02*
X120878120Y-66378120D01*
X85000000Y-78500000D02*
X79500000Y-73000000D01*
X89000000Y-78500000D02*
X88000000Y-78500000D01*
X120878120Y-66378120D02*
X115500000Y-66378120D01*
X90500000Y-92000000D02*
X95500000Y-97000000D01*
X121500000Y-84000000D02*
X121500000Y-67000000D01*
X90500000Y-92000000D02*
X90500000Y-80000000D01*
X93000000Y-73840000D02*
X92160000Y-73000000D01*
X120500000Y-69000000D02*
X120418120Y-68918120D01*
X93000000Y-92000000D02*
X97000000Y-96000000D01*
X108000000Y-96000000D02*
X120500000Y-83500000D01*
X120500000Y-83500000D02*
X120500000Y-69000000D01*
X120418120Y-68918120D02*
X115500000Y-68918120D01*
X93000000Y-92000000D02*
X93000000Y-73840000D01*
X97000000Y-96000000D02*
X108000000Y-96000000D01*
X59160000Y-73000000D02*
X70160000Y-84000000D01*
X76000000Y-84000000D02*
X81850000Y-89850000D01*
X123000000Y-64000000D02*
X122838120Y-63838120D01*
X88000000Y-90000000D02*
X88000000Y-92000000D01*
X70160000Y-84000000D02*
X76000000Y-84000000D01*
X82523654Y-93275000D02*
X83476346Y-93275000D01*
X81850000Y-89850000D02*
X81850000Y-92601346D01*
X81850000Y-92601346D02*
X82523654Y-93275000D01*
X123000000Y-84000000D02*
X123000000Y-64000000D01*
X83476346Y-93275000D02*
X84150000Y-92601346D01*
X85000000Y-89000000D02*
X87000000Y-89000000D01*
X94000000Y-98000000D02*
X109000000Y-98000000D01*
X87000000Y-89000000D02*
X88000000Y-90000000D01*
X122838120Y-63838120D02*
X115500000Y-63838120D01*
X109000000Y-98000000D02*
X123000000Y-84000000D01*
X88000000Y-92000000D02*
X94000000Y-98000000D01*
X84150000Y-92601346D02*
X84150000Y-89850000D01*
X84150000Y-89850000D02*
X85000000Y-89000000D01*
D40*
X46100000Y-77500000D02*
X16500000Y-77500000D01*
D39*
X54500000Y-59000000D02*
X56000000Y-57500000D01*
X24000000Y-65500000D02*
X30500000Y-59000000D01*
X33500000Y-59000000D02*
X54500000Y-59000000D01*
X22312500Y-65500000D02*
X24000000Y-65500000D01*
X139660000Y-37138120D02*
X139660000Y-35525328D01*
X126501880Y-34998120D02*
X124500000Y-37000000D01*
X139132792Y-34998120D02*
X126501880Y-34998120D01*
X138360000Y-38438120D02*
X139660000Y-37138120D01*
X108600000Y-35900000D02*
X108600000Y-32251471D01*
X64400000Y-39600000D02*
X64000000Y-40000000D01*
X139660000Y-35525328D02*
X139132792Y-34998120D01*
X107748529Y-31400000D02*
X95534314Y-31400000D01*
X108600000Y-32251471D02*
X107748529Y-31400000D01*
X107500000Y-37000000D02*
X108600000Y-35900000D01*
X95534314Y-31400000D02*
X87334314Y-39600000D01*
X87334314Y-39600000D02*
X64400000Y-39600000D01*
D40*
X52000000Y-13000000D02*
X67646000Y-28646000D01*
D38*
X65500000Y-70500000D02*
X65500000Y-69000000D01*
M02*
