G04 #@! TF.GenerationSoftware,KiCad,Pcbnew,10.0.5*
G04 #@! TF.CreationDate,2026-08-15T22:03:09+02:00*
G04 #@! TF.ProjectId,winch_mainboard,77696e63-685f-46d6-9169-6e626f617264,rev?*
G04 #@! TF.SameCoordinates,Original*
G04 #@! TF.FileFunction,Soldermask,Bot*
G04 #@! TF.FilePolarity,Negative*
%FSLAX46Y46*%
G04 Gerber Fmt 4.6, Leading zero omitted, Abs format (unit mm)*
G04 Created by KiCad (PCBNEW 10.0.5) date 2026-08-15 22:03:09*
%MOMM*%
%LPD*%
G01*
G04 APERTURE LIST*
G04 Aperture macros list*
%AMRoundRect*
0 Rectangle with rounded corners*
0 $1 Rounding radius*
0 $2 $3 $4 $5 $6 $7 $8 $9 X,Y pos of 4 corners*
0 Add a 4 corners polygon primitive as box body*
4,1,4,$2,$3,$4,$5,$6,$7,$8,$9,$2,$3,0*
0 Add four circle primitives for the rounded corners*
1,1,$1+$1,$2,$3*
1,1,$1+$1,$4,$5*
1,1,$1+$1,$6,$7*
1,1,$1+$1,$8,$9*
0 Add four rect primitives between the rounded corners*
20,1,$1+$1,$2,$3,$4,$5,0*
20,1,$1+$1,$4,$5,$6,$7,0*
20,1,$1+$1,$6,$7,$8,$9,0*
20,1,$1+$1,$8,$9,$2,$3,0*%
G04 Aperture macros list end*
%ADD10R,1.050000X1.500000*%
%ADD11O,1.050000X1.500000*%
%ADD12RoundRect,0.250000X0.725000X-0.600000X0.725000X0.600000X-0.725000X0.600000X-0.725000X-0.600000X0*%
%ADD13O,1.950000X1.700000*%
%ADD14C,1.600000*%
%ADD15R,2.000000X1.200000*%
%ADD16O,2.000000X1.200000*%
%ADD17RoundRect,0.250000X-0.550000X-0.550000X0.550000X-0.550000X0.550000X0.550000X-0.550000X0.550000X0*%
%ADD18RoundRect,0.249999X-0.850001X-0.850001X0.850001X-0.850001X0.850001X0.850001X-0.850001X0.850001X0*%
%ADD19C,2.200000*%
%ADD20RoundRect,0.250000X-0.600000X-0.725000X0.600000X-0.725000X0.600000X0.725000X-0.600000X0.725000X0*%
%ADD21O,1.700000X1.950000*%
%ADD22C,3.200000*%
%ADD23R,1.700000X1.700000*%
%ADD24C,1.700000*%
%ADD25RoundRect,0.250000X-1.050000X1.050000X-1.050000X-1.050000X1.050000X-1.050000X1.050000X1.050000X0*%
%ADD26C,2.600000*%
%ADD27C,1.524000*%
%ADD28R,1.524000X1.524000*%
%ADD29C,3.000000*%
%ADD30C,2.500000*%
%ADD31RoundRect,0.250000X1.050000X-1.050000X1.050000X1.050000X-1.050000X1.050000X-1.050000X-1.050000X0*%
%ADD32R,1.800000X1.800000*%
%ADD33C,1.800000*%
%ADD34RoundRect,0.250000X-0.600000X-0.750000X0.600000X-0.750000X0.600000X0.750000X-0.600000X0.750000X0*%
%ADD35O,1.700000X2.000000*%
G04 APERTURE END LIST*
D10*
X52430000Y-52360000D03*
D11*
X53700000Y-52360000D03*
X54970000Y-52360000D03*
D12*
X22312500Y-70500000D03*
D13*
X22312500Y-68000000D03*
X22312500Y-65500000D03*
X22312500Y-63000000D03*
D14*
X104000000Y-45000000D03*
X104000000Y-55160000D03*
X64500000Y-52000000D03*
X74660000Y-52000000D03*
D15*
X115500000Y-23198120D03*
D16*
X115500000Y-25738120D03*
X115500000Y-28278120D03*
X115500000Y-30818120D03*
X115500000Y-33358120D03*
X115500000Y-35898120D03*
X115500000Y-38438120D03*
X115500000Y-40978120D03*
X115500000Y-43518120D03*
X115500000Y-46058120D03*
X115500000Y-48598120D03*
X115500000Y-51138120D03*
X115500000Y-53678120D03*
X115500000Y-56218120D03*
X115500000Y-58758120D03*
X115500000Y-61298120D03*
X115500000Y-63838120D03*
X115500000Y-66378120D03*
X115500000Y-68918120D03*
X115496320Y-71455400D03*
X115496320Y-73995400D03*
X115496320Y-76535400D03*
X138360000Y-76538120D03*
X138360000Y-73998120D03*
X138360000Y-71458120D03*
X138360000Y-68918120D03*
X138360000Y-66378120D03*
X138360000Y-63838120D03*
X138360000Y-61298120D03*
X138360000Y-58758120D03*
X138360000Y-56218120D03*
X138360000Y-53678120D03*
X138360000Y-51138120D03*
X138360000Y-48598120D03*
X138360000Y-46058120D03*
X138360000Y-43518120D03*
X138360000Y-40978120D03*
X138360000Y-38438120D03*
X138360000Y-35898120D03*
X138360000Y-33358120D03*
X138360000Y-30818120D03*
X138360000Y-28278120D03*
X138360000Y-25738120D03*
X138360000Y-23198120D03*
D17*
X84540000Y-62750000D03*
D14*
X92160000Y-62750000D03*
D18*
X32800000Y-52000000D03*
D19*
X42960000Y-52000000D03*
D20*
X80500000Y-92000000D03*
D21*
X83000000Y-92000000D03*
X85500000Y-92000000D03*
X88000000Y-92000000D03*
X90500000Y-92000000D03*
X93000000Y-92000000D03*
D14*
X49500000Y-42000000D03*
X59660000Y-42000000D03*
X32500000Y-62750000D03*
X42660000Y-62750000D03*
D22*
X174500000Y-106000000D03*
X6000000Y-6000000D03*
D17*
X50693333Y-62750000D03*
D14*
X58313333Y-62750000D03*
X146250000Y-42500000D03*
X148750000Y-42500000D03*
D23*
X148500000Y-95180000D03*
D24*
X148500000Y-92640000D03*
X148500000Y-90100000D03*
X148500000Y-87560000D03*
X148500000Y-85020000D03*
X148500000Y-82480000D03*
X148500000Y-79940000D03*
X148500000Y-77400000D03*
X148500000Y-74860000D03*
X148500000Y-72320000D03*
X148500000Y-69780000D03*
X148500000Y-67240000D03*
X148500000Y-64700000D03*
X148500000Y-62160000D03*
X148500000Y-59620000D03*
X148500000Y-57080000D03*
X148500000Y-54540000D03*
X148500000Y-52000000D03*
D25*
X158500000Y-30000000D03*
D26*
X158500000Y-35080000D03*
D20*
X100000000Y-19000000D03*
D21*
X102500000Y-19000000D03*
X105000000Y-19000000D03*
X107500000Y-19000000D03*
D14*
X82000000Y-52000000D03*
X92160000Y-52000000D03*
D27*
X72000000Y-28646000D03*
D28*
X72000000Y-31186000D03*
D27*
X72000000Y-17978000D03*
D28*
X72000000Y-20518000D03*
D27*
X90542000Y-17978000D03*
D28*
X90542000Y-20518000D03*
D27*
X90542000Y-28646000D03*
D28*
X90542000Y-31186000D03*
D12*
X22312500Y-47500000D03*
D13*
X22312500Y-45000000D03*
X22312500Y-42500000D03*
X22312500Y-40000000D03*
D14*
X49000000Y-73000000D03*
X59160000Y-73000000D03*
X66346667Y-62750000D03*
X76506667Y-62750000D03*
X65500000Y-73000000D03*
X75660000Y-73000000D03*
D29*
X52450000Y-87950000D03*
D30*
X50500000Y-81900000D03*
D29*
X38300000Y-81900000D03*
X38250000Y-93950000D03*
D30*
X50500000Y-93900000D03*
D23*
X162040000Y-95180000D03*
D24*
X162040000Y-92640000D03*
X162040000Y-90100000D03*
X162040000Y-87560000D03*
X162040000Y-85020000D03*
X162040000Y-82480000D03*
X162040000Y-79940000D03*
X162040000Y-77400000D03*
X162040000Y-74860000D03*
X162040000Y-72320000D03*
X162040000Y-69780000D03*
X162040000Y-67240000D03*
X162040000Y-64700000D03*
X162040000Y-62160000D03*
X162040000Y-59620000D03*
X162040000Y-57080000D03*
X162040000Y-54540000D03*
X162040000Y-52000000D03*
D31*
X25172500Y-92860000D03*
D26*
X25172500Y-87780000D03*
X25172500Y-82700000D03*
D32*
X103500000Y-70500000D03*
D33*
X103500000Y-67960000D03*
D22*
X174500000Y-6000000D03*
D34*
X63500000Y-92000000D03*
D35*
X66000000Y-92000000D03*
D22*
X6000000Y-106000000D03*
D27*
X45000000Y-28646000D03*
D28*
X45000000Y-31186000D03*
D27*
X45000000Y-17978000D03*
D28*
X45000000Y-20518000D03*
D27*
X63542000Y-17978000D03*
D28*
X63542000Y-20518000D03*
D27*
X63542000Y-28646000D03*
D28*
X63542000Y-31186000D03*
D14*
X152840000Y-42500000D03*
X163000000Y-42500000D03*
D31*
X25172500Y-24280000D03*
D26*
X25172500Y-19200000D03*
D14*
X82000000Y-73000000D03*
X92160000Y-73000000D03*
D17*
X35000000Y-23500000D03*
D14*
X37000000Y-23500000D03*
X32500000Y-42000000D03*
X42660000Y-42000000D03*
D20*
X156000000Y-19000000D03*
D21*
X158500000Y-19000000D03*
X161000000Y-19000000D03*
M02*
