M48
; DRILL file KiCad 10.0.5 date 2026-08-15T22:05:19
; FORMAT={-:-/ absolute / metric / decimal}
; #@! TF.CreationDate,2026-08-15T22:05:19+02:00
; #@! TF.GenerationSoftware,Kicad,Pcbnew,10.0.5
; #@! TF.FileFunction,Plated,1,2,PTH
FMAT,2
METRIC
; #@! TA.AperFunction,Plated,PTH,ViaDrill
T1C0.300
; #@! TA.AperFunction,Plated,PTH,ViaDrill
T2C0.400
; #@! TA.AperFunction,Plated,PTH,ComponentDrill
T3C0.700
; #@! TA.AperFunction,Plated,PTH,ComponentDrill
T4C0.750
; #@! TA.AperFunction,Plated,PTH,ComponentDrill
T5C0.800
; #@! TA.AperFunction,Plated,PTH,ComponentDrill
T6C0.900
; #@! TA.AperFunction,Plated,PTH,ComponentDrill
T7C0.950
; #@! TA.AperFunction,Plated,PTH,ComponentDrill
T8C1.000
; #@! TA.AperFunction,Plated,PTH,ComponentDrill
T9C1.100
; #@! TA.AperFunction,Plated,PTH,ComponentDrill
T10C1.300
%
G90
G05
T1
X30.5Y-57.5
X30.5Y-59.0
X33.5Y-57.5
X33.5Y-59.0
X43.859Y-40.141
X54.0Y-70.5
X56.0Y-56.5
X56.0Y-57.5
X57.0Y-70.5
X61.0Y-41.0
X61.5Y-57.5
X61.5Y-58.5
X61.5Y-63.0
X63.0Y-56.5
X64.0Y-40.0
X69.0Y-41.0
X72.5Y-47.5
X72.5Y-50.5
X82.0Y-59.25
X82.0Y-62.75
X85.0Y-78.5
X88.0Y-78.5
X92.0Y-56.0
X98.0Y-56.0
X107.5Y-32.0
X107.5Y-34.5
X107.5Y-37.0
X113.0Y-32.0
X113.0Y-34.5
X124.5Y-37.0
X141.0Y-23.5
X146.0Y-23.5
X150.0Y-28.19
T2
X14.293Y-51.604
X19.0Y-51.5
X52.5Y-75.5
X57.7Y-75.5
X119.0Y-80.0
X126.5Y-80.0
T3
X45.0Y-17.978
X45.0Y-20.518
X45.0Y-28.646
X45.0Y-31.186
X63.542Y-17.978
X63.542Y-20.518
X63.542Y-28.646
X63.542Y-31.186
X72.0Y-17.978
X72.0Y-20.518
X72.0Y-28.646
X72.0Y-31.186
X90.542Y-17.978
X90.542Y-20.518
X90.542Y-28.646
X90.542Y-31.186
T4
X52.43Y-52.36
X53.7Y-52.36
X54.97Y-52.36
T5
X32.5Y-42.0
X32.5Y-62.75
X35.0Y-23.5
X37.0Y-23.5
X42.66Y-42.0
X42.66Y-62.75
X49.0Y-73.0
X49.5Y-42.0
X50.693Y-62.75
X58.313Y-62.75
X59.16Y-73.0
X59.66Y-42.0
X64.5Y-52.0
X65.5Y-73.0
X66.347Y-62.75
X74.66Y-52.0
X75.66Y-73.0
X76.507Y-62.75
X82.0Y-52.0
X82.0Y-73.0
X84.54Y-62.75
X92.16Y-52.0
X92.16Y-62.75
X92.16Y-73.0
X104.0Y-45.0
X104.0Y-55.16
X115.496Y-71.455
X115.496Y-73.995
X115.496Y-76.535
X115.5Y-23.198
X115.5Y-25.738
X115.5Y-28.278
X115.5Y-30.818
X115.5Y-33.358
X115.5Y-35.898
X115.5Y-38.438
X115.5Y-40.978
X115.5Y-43.518
X115.5Y-46.058
X115.5Y-48.598
X115.5Y-51.138
X115.5Y-53.678
X115.5Y-56.218
X115.5Y-58.758
X115.5Y-61.298
X115.5Y-63.838
X115.5Y-66.378
X115.5Y-68.918
X138.36Y-23.198
X138.36Y-25.738
X138.36Y-28.278
X138.36Y-30.818
X138.36Y-33.358
X138.36Y-35.898
X138.36Y-38.438
X138.36Y-40.978
X138.36Y-43.518
X138.36Y-46.058
X138.36Y-48.598
X138.36Y-51.138
X138.36Y-53.678
X138.36Y-56.218
X138.36Y-58.758
X138.36Y-61.298
X138.36Y-63.838
X138.36Y-66.378
X138.36Y-68.918
X138.36Y-71.458
X138.36Y-73.998
X138.36Y-76.538
X146.25Y-42.5
X148.75Y-42.5
X152.84Y-42.5
X163.0Y-42.5
T6
X103.5Y-67.96
X103.5Y-70.5
T7
X22.312Y-40.0
X22.312Y-42.5
X22.312Y-45.0
X22.312Y-47.5
X22.312Y-63.0
X22.312Y-65.5
X22.312Y-68.0
X22.312Y-70.5
X80.5Y-92.0
X83.0Y-92.0
X85.5Y-92.0
X88.0Y-92.0
X90.5Y-92.0
X93.0Y-92.0
X100.0Y-19.0
X102.5Y-19.0
X105.0Y-19.0
X107.5Y-19.0
X156.0Y-19.0
X158.5Y-19.0
X161.0Y-19.0
T8
X50.5Y-81.9
X50.5Y-93.9
X63.5Y-92.0
X66.0Y-92.0
X148.5Y-52.0
X148.5Y-54.54
X148.5Y-57.08
X148.5Y-59.62
X148.5Y-62.16
X148.5Y-64.7
X148.5Y-67.24
X148.5Y-69.78
X148.5Y-72.32
X148.5Y-74.86
X148.5Y-77.4
X148.5Y-79.94
X148.5Y-82.48
X148.5Y-85.02
X148.5Y-87.56
X148.5Y-90.1
X148.5Y-92.64
X148.5Y-95.18
X162.04Y-52.0
X162.04Y-54.54
X162.04Y-57.08
X162.04Y-59.62
X162.04Y-62.16
X162.04Y-64.7
X162.04Y-67.24
X162.04Y-69.78
X162.04Y-72.32
X162.04Y-74.86
X162.04Y-77.4
X162.04Y-79.94
X162.04Y-82.48
X162.04Y-85.02
X162.04Y-87.56
X162.04Y-90.1
X162.04Y-92.64
X162.04Y-95.18
T9
X32.8Y-52.0
X42.96Y-52.0
T10
X25.172Y-19.2
X25.172Y-24.28
X25.172Y-82.7
X25.172Y-87.78
X25.172Y-92.86
X38.25Y-93.95
X38.3Y-81.9
X52.45Y-87.95
X158.5Y-30.0
X158.5Y-35.08
M30
